<?xml version="1.0" encoding="UTF-8" standalone="no"?>
<!-- Created with Inkscape (http://www.inkscape.org/) -->

<svg
   width="297mm"
   height="210mm"
   viewBox="0 0 297 210"
   version="1.1"
   id="svg268"
   inkscape:version="1.2.2 (b0a8486541, 2022-12-01)"
   sodipodi:docname="drawing.svg"
   xmlns:inkscape="http://www.inkscape.org/namespaces/inkscape"
   xmlns:sodipodi="http://sodipodi.sourceforge.net/DTD/sodipodi-0.dtd"
   xmlns="http://www.w3.org/2000/svg"
   xmlns:svg="http://www.w3.org/2000/svg">
  <sodipodi:namedview
     id="namedview270"
     pagecolor="#ffffff"
     bordercolor="#000000"
     borderopacity="0.25"
     inkscape:showpageshadow="2"
     inkscape:pageopacity="0.0"
     inkscape:pagecheckerboard="0"
     inkscape:deskcolor="#d1d1d1"
     inkscape:document-units="mm"
     showgrid="false"
     inkscape:zoom="0.82662425"
     inkscape:cx="433.08674"
     inkscape:cy="480.87145"
     inkscape:window-width="1920"
     inkscape:window-height="1100"
     inkscape:window-x="0"
     inkscape:window-y="0"
     inkscape:window-maximized="1"
     inkscape:current-layer="layer1" />
  <defs
     id="defs265" />
  <g
     inkscape:label="Layer 1"
     inkscape:groupmode="layer"
     id="layer1">
    <g
       id="g140"
       transform="matrix(0.0827261,0,0,0.0827261,127.78377,58.124465)">
      <line
         fill="none"
         y1="501"
         x1="303.10001"
         y2="501"
         x2="302.10001"
         id="line132" />
      <g
         id="g138">
        <path
           d="M 501,300.8 V 209.1 H 455.7 C 450.4,186.7 441.4,165.8 429.3,147 L 462.2,114.3 397.3,49.7 363.9,83 C 345.1,71.5 324.3,63.1 302.1,58.2 V 11 H 210 v 48.3 c -22,5.4 -42.6,14.4 -61.1,26.4 l -34.2,-34 -64.9,64.6 35.3,35.2 c -2.8,4.6 -5.3,9.2 -7.7,14 -7.5,14.3 -13.2,30 -17.1,45.7 H 11 v 91.7 h 50.3 c 1.5,6 3.3,11.9 5.3,17.8 0.1,0.4 0.3,0.8 0.4,1.2 0,0.1 0.1,0.2 0.1,0.4 4.9,14.2 11.3,27.7 19.1,40.2 l -35.5,35.3 64.9,64.6 35.1,-34.9 c 18.3,11.5 38.6,20.2 60.2,25.4 V 501 H 302 v -47.1 c 22.7,-5 44,-13.7 63.1,-25.6 l 32.2,32 64.9,-64.6 -32.1,-31.9 c 12,-19.1 20.9,-40.3 26,-62.9 H 501 Z m -94.8,64 29.9,29.8 -36.6,36.5 -29.5,-29.4 c -24.7,18.9 -54.4,31.7 -86.7,36 v 42.4 H 232 v -42.7 c -31.5,-4.6 -60.4,-17.2 -84.6,-35.7 l -31.6,31.5 -36.6,-36.5 32.4,-31.3 C 93.7,341.4 81.6,313 77.2,282 H 31.9 v -51.1 h 44 l 1.5,-3.6 C 82.1,197.6 93.9,170.2 111,147 l -32,-31.9 36.6,-36.5 31,31.9 c 24,-18.5 52.8,-31.2 84.1,-36 V 31.8 H 282 v 42.3 c 32,4.1 61.3,16.4 86,34.8 l 30.3,-30.1 35.6,36.5 -29.6,29.5 c 18.2,23.8 30.7,52.2 35.5,83.1 h 45.4 V 279 h -44.7 c -3.9,31.8 -16.1,61.1 -34.3,85.8 z"
           id="path134" />
        <path
           d="m 257,143.4 c -61.8,0 -113.1,50 -113.1,112.6 0,62.6 51.4,112.6 113.1,112.6 61.7,0 113.1,-51.1 113.1,-112.6 0,-61.5 -51.3,-112.6 -113.1,-112.6 z m 0,204.3 c -51.3,0 -92.1,-40.7 -92.1,-91.7 0,-51.1 41.9,-91.7 92.1,-91.7 50.2,0 92.1,40.7 92.1,91.7 0.1,51.1 -41.8,91.7 -92.1,91.7 z"
           id="path136" />
      </g>
    </g>
    <text
       xml:space="preserve"
       style="font-style:normal;font-variant:normal;font-weight:normal;font-stretch:normal;font-size:19.7556px;line-height:normal;font-family:sans-serif;-inkscape-font-specification:sans-serif;font-variant-ligatures:normal;font-variant-position:normal;font-variant-caps:normal;font-variant-numeric:normal;font-variant-alternates:normal;font-variant-east-asian:normal;font-feature-settings:normal;font-variation-settings:normal;text-indent:0;text-align:start;text-decoration-line:none;text-decoration-style:solid;text-decoration-color:#000000;letter-spacing:normal;word-spacing:normal;text-transform:none;writing-mode:lr-tb;direction:ltr;text-orientation:mixed;dominant-baseline:auto;baseline-shift:baseline;white-space:normal;opacity:1;vector-effect:none;fill:#000000;fill-opacity:1;stroke:#000000;stroke-width:0.264583;stroke-linecap:butt;stroke-linejoin:miter;stroke-miterlimit:4;stroke-dasharray:none;stroke-dashoffset:2.00801;stroke-opacity:1;-inkscape-stroke:none;stop-color:#000000;stop-opacity:1"
       x="117.76756"
       y="51.627117"
       id="text652"><tspan
         sodipodi:role="line"
         id="tspan650"
         style="font-style:normal;font-variant:normal;font-weight:normal;font-stretch:normal;font-size:19.7556px;line-height:normal;font-family:sans-serif;-inkscape-font-specification:sans-serif;font-variant-ligatures:normal;font-variant-position:normal;font-variant-caps:normal;font-variant-numeric:normal;font-variant-alternates:normal;font-variant-east-asian:normal;font-feature-settings:normal;font-variation-settings:normal;text-indent:0;text-align:start;text-decoration-line:none;text-decoration-style:solid;text-decoration-color:#000000;letter-spacing:normal;word-spacing:normal;text-transform:none;writing-mode:lr-tb;direction:ltr;text-orientation:mixed;dominant-baseline:auto;baseline-shift:baseline;white-space:normal;vector-effect:none;fill:#000000;fill-opacity:1;stroke:#000000;stroke-width:0.264583;stroke-linecap:butt;stroke-linejoin:miter;stroke-miterlimit:4;stroke-dasharray:none;stroke-dashoffset:2.00801;stroke-opacity:1;-inkscape-stroke:none;stop-color:#000000;stop-opacity:1"
         x="117.76756"
         y="51.627117">Logikk</tspan></text>
    <text
       xml:space="preserve"
       style="font-size:19.7556px;line-height:normal;font-family:'EB Garamond';-inkscape-font-specification:'EB Garamond';text-decoration-color:#000000;fill:#404040;stroke:#000000;stroke-width:0.264583;stroke-dashoffset:2.00801;stop-color:#000000"
       x="11.488289"
       y="87.668747"
       id="text652-3"><tspan
         sodipodi:role="line"
         id="tspan650-6"
         style="font-style:normal;font-variant:normal;font-weight:normal;font-stretch:normal;font-family:sans-serif;-inkscape-font-specification:sans-serif;fill:#000000;fill-opacity:1;stroke-width:0.264583"
         x="11.488289"
         y="87.668747">Input</tspan></text>
    <text
       xml:space="preserve"
       style="font-size:19.7556px;line-height:normal;font-family:'EB Garamond';-inkscape-font-specification:'EB Garamond';text-decoration-color:#000000;fill:#404040;stroke:#000000;stroke-width:0.264583;stroke-dashoffset:2.00801;stop-color:#000000"
       x="221.85641"
       y="87.649872"
       id="text652-3-3"><tspan
         sodipodi:role="line"
         id="tspan650-6-5"
         style="font-style:normal;font-variant:normal;font-weight:normal;font-stretch:normal;font-family:sans-serif;-inkscape-font-specification:sans-serif;fill:#000000;fill-opacity:1;stroke-width:0.264583"
         x="221.85641"
         y="87.649872">Output</tspan></text>
    <path
       d="m 84.464061,73.838004 c 0.542743,-0.542729 1.42268,-0.542729 1.965427,0 l 6.253874,6.253928 c 0.542697,0.542743 0.542697,1.422685 0,1.965429 l -6.253874,6.253911 c -0.542747,0.542705 -1.422684,0.542705 -1.965427,0 -0.54273,-0.5427 -0.54273,-1.4227 0,-1.965399 l 3.762228,-3.881465 H 75.023562 c -0.767544,0 -1.389761,-0.622225 -1.389761,-1.389762 0,-0.767537 0.622217,-1.389761 1.389761,-1.389761 h 13.202727 l -3.762228,-3.881452 c -0.54273,-0.542743 -0.54273,-1.422685 0,-1.965429 z"
       id="path2"
       style="stroke-width:1.38976" />
    <path
       d="m 208.71365,73.601819 c 0.54274,-0.542729 1.42268,-0.542729 1.96543,0 l 6.25391,6.253928 c 0.5427,0.542743 0.5427,1.422685 0,1.965429 l -6.25391,6.253911 c -0.54275,0.542705 -1.42269,0.542705 -1.96543,0 -0.54273,-0.5427 -0.54273,-1.4227 0,-1.965399 l 3.76223,-3.881465 h -13.20273 c -0.76754,0 -1.38976,-0.622225 -1.38976,-1.389762 0,-0.767537 0.62222,-1.389761 1.38976,-1.389761 h 13.20274 l -3.76224,-3.881452 c -0.54273,-0.542743 -0.54273,-1.422685 0,-1.965429 z"
       id="path2-6"
       style="stroke-width:1.38976" />
    <rect
       style="font-variation-settings:normal;opacity:1;fill:none;fill-opacity:1;stroke:#000000;stroke-width:2;stroke-linecap:butt;stroke-linejoin:miter;stroke-miterlimit:4;stroke-dasharray:none;stroke-dashoffset:7.58933;stroke-opacity:1;stop-color:#000000;stop-opacity:1"
       id="rect3012"
       width="90.199158"
       height="74.650452"
       x="103.39859"
       y="32.92791" />
  </g>
</svg>
